<svg width="20" height="20" viewBox="0 0 20 20" fill="none" xmlns="http://www.w3.org/2000/svg">
<g id="Huge-icon/interface/outline/notepad">
<path id="Vector" d="M6.6802 8.30747H13.181M6.6802 11.5579H13.181M6.6802 14.8083H9.93062M6.6802 3.43185C6.6802 4.32942 7.40783 5.05705 8.30541 5.05705H11.5558C12.4534 5.05705 13.181 4.32942 13.181 3.43185M6.6802 3.43185C6.6802 2.53427 7.40783 1.80664 8.30541 1.80664H11.5558C12.4534 1.80664 13.181 2.53427 13.181 3.43185M6.6802 3.43185H5.8676C4.07245 3.43185 2.61719 4.88711 2.61719 6.68226V14.8083C2.61719 16.6035 4.07245 18.0587 5.8676 18.0587H13.9936C15.7888 18.0587 17.244 16.6035 17.244 14.8083V6.68226C17.244 4.88711 15.7888 3.43185 13.9936 3.43185H13.181" stroke="#6F71FD" stroke-width="1.21891" stroke-linecap="round"/>
</g>
</svg>
